<?xml version="1.0" encoding="UTF-8"?>
<svg id="Layer_1" xmlns="http://www.w3.org/2000/svg" version="1.1" viewBox="0 0 412.8 414.6">
  <!-- Generator: Adobe Illustrator 29.8.4, SVG Export Plug-In . SVG Version: 2.1.1 Build 6)  -->
  <defs>
    <style>
      .st0 {
        fill: #c00002;
      }

      .st1 {
        fill: #fff;
      }
    </style>
  </defs>
  <g>
    <path class="st1" d="M-777.7,1011.5v221h-57v-105.2l-39.2,36.5-39.2-36.5v105.2h-57v-221l96.3,89.1,96.3-89.1Z"/>
    <path class="st1" d="M-549.6,1018.6l-76.6,128.3v85.6h-57v-85.6l-76.6-128.3h66.5l38.6,64.8,38.6-64.8h66.5Z"/>
    <path class="st1" d="M-376.1,1018.6v46.3h-55.3v167.5h-57v-167.5h-55.3v-46.3h167.5Z"/>
    <path class="st1" d="M-258.4,1186.2v46.3h-99.8v-46.3h21.4v-121.2h-21.4v-46.3h99.8v46.3h-21.4v121.2h21.4Z"/>
    <path class="st1" d="M-83.5,1161.5l41,31.2c-20.2,26.4-52,43.4-87.6,43.4-61.2,0-110.5-49.3-110.5-110.5s49.3-110.5,110.5-110.5,67.4,16.9,87.6,43.4l-41,31.5c-10.7-14.3-27.6-23.2-46.6-23.2-32.4,0-58.8,26.4-58.8,58.8s26.4,58.8,58.8,58.8,35.9-8.9,46.6-22.9Z"/>
    <path class="st1" d="M103.1,1232.5l-54.7-83.8h-16.9v83.8H-25.5v-213.9H31.5v83.8h16.9l54.7-83.8h63.9l-69.8,106.9,69.8,106.9h-63.9Z"/>
    <path class="st1" d="M351.2,1186.2v46.3h-160.4v-213.9h117.6v46.3h-60.6v37.4h82v46.3h-82v37.4h103.4Z"/>
    <path class="st1" d="M518.7,1018.6v46.3h-55.3v167.5h-57v-167.5h-55.3v-46.3h167.5Z"/>
    <path class="st1" d="M727.8,1171c0,44-30,61.5-105.2,61.5h-80.2v-213.9h80.2c72.5,0,101.6,17.5,101.6,61.5s-9.5,36.5-30.6,45.2c23.8,8,34.2,22.9,34.2,45.7ZM599.5,1102.4h23.2c34.2,0,44.6-4.5,44.6-18.7s-10.4-18.7-44.6-18.7h-23.2v37.4ZM670.8,1167.5c0-14.3-11.3-18.7-48.1-18.7h-23.2v37.4h23.2c36.8,0,48.1-4.5,48.1-18.7Z"/>
    <path class="st1" d="M934.3,1018.6v128.3c0,57.3-31.8,89.1-89.1,89.1s-89.1-31.8-89.1-89.1v-128.3h57v128.3c0,24.1,11.6,37.4,32.1,37.4s32.1-13.4,32.1-37.4v-128.3h57Z"/>
    <path class="st1" d="M1144.3,1168.4c0,43.7-32.7,67.7-90.9,67.7s-90.9-25.5-90.9-71.3h57c0,14.9,12.2,23.2,33.9,23.2s33.9-7.1,33.9-19.6c0-42.8-123,1.8-123-85.6s31.8-67.7,89.1-67.7,89.1,25.5,89.1,71.3h-57c0-14.9-11.6-23.2-32.1-23.2s-32.1,7.1-32.1,19.6c0,42.8,123-1.8,123,85.6Z"/>
  </g>
  <g>
    <rect class="st0" x="-1439.4" y="995.2" width="399.8" height="401.6" rx="-319.9" ry="-319.9"/>
    <path class="st1" d="M-1069.2,1403.3h-340.5c-19.9,0-36.2-16.2-36.2-36.2v-342.3c0-19.9,16.2-36.2,36.2-36.2h340.5c19.9,0,36.2,16.2,36.2,36.2v342.3c0,19.9-16.2,36.2-36.2,36.2ZM-1409.8,1001.7c-12.7,0-23.1,10.3-23.1,23.1v342.3c0,12.7,10.3,23.1,23.1,23.1h340.5c12.7,0,23.1-10.3,23.1-23.1v-342.3c0-12.7-10.3-23.1-23.1-23.1h-340.5Z"/>
  </g>
  <g>
    <path class="st1" d="M-1208.6,1242.3h-61.9c-4.3,0-7.7,3.5-7.7,7.7s3.5,7.7,7.7,7.7h61.9c4.3,0,7.7-3.5,7.7-7.7,0-4.3-3.5-7.7-7.7-7.7Z"/>
    <path class="st1" d="M-1193.1,1320c-5.2,0-9.5-4.2-9.5-9.5v-20.5h-73.9v20.5c0,5.2-4.3,9.5-9.5,9.5h-31c-5.2,0-9.5-4.2-9.5-9.5v-22.6c-9.3-4-15.4-13.2-15.4-23.3v-145.4l-12.4,4v23.4c0,5.2-4.3,9.5-9.5,9.5s-9.5-4.2-9.5-9.5v-30.3c0-4.1,2.6-7.7,6.6-9l24.9-8.1v-12.4c0-18.9,15.4-34.3,34.4-34.3h135.5c19,0,34.4,15.4,34.4,34.3v12.3l25.1,8.2c3.9,1.3,6.6,4.9,6.6,9v30.3c0,5.2-4.3,9.5-9.5,9.5s-9.5-4.2-9.5-9.5v-23.4l-12.7-4.1v145.5c0,10-6,19.1-15.1,23.2v22.7c0,5.2-4.3,9.5-9.5,9.5h-31ZM-1171.6,1301v-11.1h-12v11.1h12ZM-1295.4,1301v-11.1h-12v11.1h12ZM-1322.8,1264.6c0,3.6,2.9,6.5,6.5,6.5h153.4c1.7,0,3.4-.7,4.6-1.9,1.2-1.2,1.9-2.8,1.9-4.6v-61.8l-33.8,10.6-8.5,11.5c-1.8,2.4-4.6,3.9-7.7,3.9h-66.5c-3,0-5.9-1.4-7.7-3.9l-8.5-11.5-33.8-10.6v61.8ZM-1211.2,1209.9l7.5-10.2c1.2-1.6,2.9-2.8,4.8-3.4l42.5-13.3v-67.4h-166.4v67.4l42.5,13.3c1.9.6,3.6,1.8,4.8,3.4l7.5,10.2h56.8ZM-1156.5,1096.6v-9.7c0-8.5-6.9-15.4-15.4-15.4h-135.5c-8.5,0-15.4,6.9-15.4,15.4v9.7h166.4Z"/>
    <path class="st1" d="M-1177.6,1241.9c-4.3,0-7.7,3.5-7.7,7.7v.2c0,4.3,3.5,7.7,7.7,7.7s7.7-3.5,7.7-7.7v-.2c0-4.3-3.5-7.7-7.7-7.7Z"/>
    <path class="st1" d="M-1301.4,1241.9c-4.3,0-7.7,3.5-7.7,7.7v.2c0,4.3,3.5,7.7,7.7,7.7s7.7-3.5,7.7-7.7v-.2c0-4.3-3.5-7.7-7.7-7.7Z"/>
  </g>
  <g>
    <g>
      <path class="st1" d="M-926,1306.1h-31.5v22.6h27.4v13.3h-27.4v24h33.7v13.6h-52.2v-87.1h52l-2,13.5Z"/>
      <path class="st1" d="M-855.8,1369.7l-3.8,11.8c-7.5-.8-12.6-3.1-15.4-9.7-4.8,7.2-12.1,9.9-20,9.9-13.3,0-21.6-8.6-21.6-20.6s11.1-22.5,30.7-22.5h7.7v-3.3c0-8.3-3.5-10.9-11.8-10.9s-10.9,1.3-17.6,3.5l-4.2-12c8.3-3.3,17.1-4.9,24.7-4.9,18.5,0,26.5,8.2,26.5,23.3v26.9c0,5.4,1.6,7.3,4.8,8.4ZM-878.2,1361.5v-12.7h-5.8c-9.8,0-14.6,3.5-14.6,10.8s3,9.3,8.7,9.3,9.1-2.6,11.7-7.4Z"/>
      <path class="st1" d="M-796.4,1319.1l-6.8,10.2c-5.4-3.4-10.8-5.3-16.6-5.3s-9.2,2.4-9.2,6,2.3,5.7,14,9.1c13.3,3.6,20.9,9.2,20.9,21s-13,21.6-28.8,21.6-20.9-3.9-27.2-9.7l8.8-9.8c5,3.9,11.2,6.5,17.9,6.5s10.9-2.8,10.9-7.3-2.4-6.7-14.7-10.1c-13.5-3.8-19.8-10.4-19.8-20.5s10.3-19.9,26.4-19.9,17.9,3,24.2,8.1Z"/>
      <path class="st1" d="M-749.8,1379.9c-5.2,16.2-15.6,26.2-36,27.6l-1.9-12.8c13.2-1.8,17.7-5.8,21.4-14.8h-6.2l-20.8-66.7h19l13.3,55.1,14.1-55.1h18.5l-21.5,66.8Z"/>
      <path class="st1" d="M-624.3,1354.4c0,19.5-15.7,25.3-37.1,25.3h-27.2v-87.1h23.8c22.8,0,36.7,6.2,36.7,22.3s-7.9,16.9-16,18.7c9.8,1.9,19.8,6.5,19.8,20.8ZM-670.1,1306v22h9.1c8.8,0,14.1-3.6,14.1-11.4s-5.4-10.6-16.1-10.6h-7ZM-643.6,1353.7c0-9.7-6.8-13.1-16.1-13.1h-10.4v25.4h8.8c10.3,0,17.7-2,17.7-12.3Z"/>
      <path class="st1" d="M-551.7,1346.4c0,21.1-12,35.4-32,35.4s-32-13.2-32-35.4,12-35.4,32.1-35.4,31.8,13.2,31.8,35.4ZM-597,1346.4c0,15.3,4.5,22,13.3,22s13.3-6.8,13.3-22-4.5-22-13.2-22-13.5,6.8-13.5,22Z"/>
      <path class="st1" d="M-478.2,1346.4c0,21.1-12,35.4-32,35.4s-32-13.2-32-35.4,12-35.4,32.1-35.4,31.8,13.2,31.8,35.4ZM-523.5,1346.4c0,15.3,4.5,22,13.3,22s13.3-6.8,13.3-22-4.5-22-13.2-22-13.5,6.8-13.5,22Z"/>
      <path class="st1" d="M-447,1379.7h-17.9v-93.2l17.9-2v95.3ZM-427.7,1342.4l23.3,37.4h-20.4l-21.5-36.5,21.4-30.2h18.5l-21.3,29.3Z"/>
      <path class="st1" d="M-376.9,1289.1c0,5.9-4.5,10.4-10.9,10.4s-10.8-4.5-10.8-10.4,4.4-10.4,10.8-10.4,10.9,4.5,10.9,10.4ZM-378.9,1379.7h-17.9v-66.7h17.9v66.7Z"/>
      <path class="st1" d="M-305.7,1331.2v48.6h-17.9v-45.6c0-7.7-2.9-9.8-7.3-9.8s-9.2,3.4-13,9.3v46.1h-17.9v-66.7h15.6l1.4,8.4c5.3-6.7,11.8-10.4,20.3-10.4s18.7,7.6,18.7,20.1Z"/>
      <path class="st1" d="M-229.4,1316.7c-4.9,1.9-11.2,2.5-19.3,2.5,8.2,3.6,12.3,8.7,12.3,17.1,0,13-10.4,22.4-27.4,22.4s-5.4-.2-7.8-.9c-1.5,1-2.5,2.6-2.5,4.4s1.1,4.4,7.7,4.4h10.2c15.1,0,24.8,8.1,24.8,19.1s-11.7,21.6-34,21.6-31.1-7.9-31.1-21.3h16c0,6.3,2.8,9.1,15.5,9.1s15.6-3.4,15.6-8.2-3.4-7.3-10.4-7.3h-9.8c-14,0-19.8-6-19.8-13.1s3-9.4,7.8-12.5c-8.3-4.5-11.8-10.4-11.8-19,0-14.7,11.7-24.2,28.4-24.2,15.4.4,23.2-3.5,31.2-8.1l4.4,13.7ZM-275.6,1334.9c0,7.7,4.3,12.2,11.1,12.2s10.9-4.3,10.9-12.5-3.6-11.7-11.1-11.7-10.9,4.7-10.9,12Z"/>
      <path class="st1" d="M-84.3,1292.7h50.6l-2,13.5h-30.1v24.7h26.2v13.5h-26.2v35.5h-18.5v-87.1Z"/>
      <path class="st1" d="M25.3,1369.7l-3.8,11.8c-7.5-.8-12.6-3.1-15.3-9.7-4.8,7.2-12.1,9.9-20,9.9-13.3,0-21.6-8.6-21.6-20.6s11.1-22.5,30.7-22.5H2.9v-3.3c0-8.3-3.5-10.9-11.8-10.9s-10.9,1.3-17.6,3.5l-4.2-12c8.3-3.3,17.1-4.9,24.7-4.9,18.5,0,26.5,8.2,26.5,23.3v26.9c0,5.4,1.6,7.3,4.8,8.4ZM2.9,1361.5v-12.7H-2.9c-9.8,0-14.6,3.5-14.6,10.8s3,9.3,8.7,9.3,9.1-2.6,11.7-7.4Z"/>
      <path class="st1" d="M84.7,1319.1l-6.8,10.2c-5.4-3.4-10.8-5.3-16.6-5.3s-9.2,2.4-9.2,6,2.3,5.7,14,9.1c13.3,3.6,20.9,9.2,20.9,21s-13,21.6-28.8,21.6-20.9-3.9-27.2-9.7l8.8-9.8c5,3.9,11.2,6.5,17.9,6.5s10.9-2.8,10.9-7.3-2.4-6.7-14.7-10.1c-13.5-3.8-19.8-10.4-19.8-20.5s10.3-19.9,26.4-19.9,17.9,3,24.2,8.1Z"/>
      <path class="st1" d="M138.3,1376.6c-4.9,3.4-11.4,5.2-17.4,5.2-13.8-.1-20.9-8.1-20.9-22.9v-33.2h-9.9v-12.6h9.9v-14.6l17.9-2.1v16.7h15.4l-1.8,12.6h-13.6v32.8c0,6.5,2.1,9.1,6.7,9.1s4.8-.8,7.6-2.3l6.2,11.3Z"/>
      <path class="st1" d="M233.1,1307.1h-22v72.6h-18.5v-72.6h-23.2v-14.5h65.7l-2,14.5Z"/>
      <path class="st1" d="M281.3,1312.2l-2.9,17.2c-2.1-.5-3.8-.9-6-.9-8.2,0-12.1,6.2-14.3,17.1v34.1h-17.9v-66.7h15.6l1.5,13c3.1-9.3,9.7-14.8,17.4-14.8s4.5.4,6.7,1Z"/>
      <path class="st1" d="M342.5,1369.7l-3.8,11.8c-7.5-.8-12.6-3.1-15.3-9.7-4.8,7.2-12.1,9.9-20,9.9-13.3,0-21.6-8.6-21.6-20.6s11.1-22.5,30.7-22.5h7.7v-3.3c0-8.3-3.5-10.9-11.8-10.9s-10.9,1.3-17.6,3.5l-4.2-12c8.3-3.3,17.1-4.9,24.7-4.9,18.5,0,26.5,8.2,26.5,23.3v26.9c0,5.4,1.6,7.3,4.8,8.4ZM320.1,1361.5v-12.7h-5.8c-9.8,0-14.6,3.5-14.6,10.8s3,9.3,8.7,9.3,9.1-2.6,11.7-7.4Z"/>
      <path class="st1" d="M388.4,1379.7h-21.3l-21.8-66.7h19.4l13.2,52.7,13.5-52.7h18.4l-21.4,66.7Z"/>
      <path class="st1" d="M473.4,1351.8h-41.6c1.3,12.8,7.3,16.6,15.9,16.6s10.4-1.8,16.2-5.8l7.4,10.1c-6.5,5.3-14.8,9.1-25.3,9.1-21.4,0-32.6-14.1-32.6-35s10.8-35.7,30.3-35.7,30.1,12.6,30.1,33.8-.2,5-.4,6.9ZM456.1,1339.8c0-10.1-3.4-16.6-12-16.6s-11.3,4.7-12.3,17.4h24.3v-.8Z"/>
      <path class="st1" d="M485.9,1363.6v-77.1l17.9-2v78.6c0,2.9,1,4.4,3.6,4.4s2.5-.3,3.5-.8l3.6,12.7c-2.9,1.3-6.9,2.3-11.4,2.3-10.8,0-17.2-6.5-17.2-18.1Z"/>
    </g>
    <circle class="st1" cx="-164.1" cy="1353.7" r="16"/>
  </g>
  <g>
    <rect class="st0" x="6.5" y="6.5" width="399.8" height="401.6" rx="33" ry="33"/>
    <path class="st1" d="M376.7,414.6H36.2c-19.9,0-36.2-16.2-36.2-36.2V36.2C0,16.2,16.2,0,36.2,0h340.5c19.9,0,36.2,16.2,36.2,36.2v342.3c0,19.9-16.2,36.2-36.2,36.2ZM36.2,13.1c-12.7,0-23.1,10.3-23.1,23.1v342.3c0,12.7,10.3,23.1,23.1,23.1h340.5c12.7,0,23.1-10.3,23.1-23.1V36.2c0-12.7-10.3-23.1-23.1-23.1H36.2Z"/>
  </g>
  <g>
    <path class="st1" d="M237.4,253.7h-61.9c-4.3,0-7.7,3.5-7.7,7.7s3.5,7.7,7.7,7.7h61.9c4.3,0,7.7-3.5,7.7-7.7,0-4.3-3.5-7.7-7.7-7.7Z"/>
    <path class="st1" d="M252.9,331.4c-5.2,0-9.5-4.2-9.5-9.5v-20.5h-73.9v20.5c0,5.2-4.3,9.5-9.5,9.5h-31c-5.2,0-9.5-4.2-9.5-9.5v-22.6c-9.3-4-15.4-13.2-15.4-23.3v-145.4l-12.4,4v23.4c0,5.2-4.3,9.5-9.5,9.5s-9.5-4.2-9.5-9.5v-30.3c0-4.1,2.6-7.7,6.6-9l24.9-8.1v-12.4c0-18.9,15.4-34.3,34.4-34.3h135.5c19,0,34.4,15.4,34.4,34.3v12.3l25.1,8.2c3.9,1.3,6.6,4.9,6.6,9v30.3c0,5.2-4.3,9.5-9.5,9.5s-9.5-4.2-9.5-9.5v-23.4l-12.7-4.1v145.5c0,10-6,19.1-15.1,23.2v22.7c0,5.2-4.3,9.5-9.5,9.5h-31ZM274.3,312.4v-11.1h-12v11.1h12ZM150.5,312.4v-11.1h-12v11.1h12ZM123.1,276c0,3.6,2.9,6.5,6.5,6.5h153.4c1.7,0,3.4-.7,4.6-1.9,1.2-1.2,1.9-2.8,1.9-4.6v-61.8l-33.8,10.6-8.5,11.5c-1.8,2.4-4.6,3.9-7.7,3.9h-66.5c-3,0-5.9-1.4-7.7-3.9l-8.5-11.5-33.8-10.6v61.8ZM234.7,221.3l7.5-10.2c1.2-1.6,2.9-2.8,4.8-3.4l42.5-13.3v-67.4H123.1v67.4l42.5,13.3c1.9.6,3.6,1.8,4.8,3.4l7.5,10.2h56.8ZM289.5,107.9v-9.7c0-8.5-6.9-15.4-15.4-15.4h-135.5c-8.5,0-15.4,6.9-15.4,15.4v9.7h166.4Z"/>
    <path class="st1" d="M268.4,253.3c-4.3,0-7.7,3.5-7.7,7.7v.2c0,4.3,3.5,7.7,7.7,7.7s7.7-3.5,7.7-7.7v-.2c0-4.3-3.5-7.7-7.7-7.7Z"/>
    <path class="st1" d="M144.5,253.3c-4.3,0-7.7,3.5-7.7,7.7v.2c0,4.3,3.5,7.7,7.7,7.7s7.7-3.5,7.7-7.7v-.2c0-4.3-3.5-7.7-7.7-7.7Z"/>
  </g>
</svg>